<svg width="24" height="24" viewBox="0 0 24 24" fill="none" xmlns="http://www.w3.org/2000/svg">
<path fill-rule="evenodd" clip-rule="evenodd" d="M17.3761 20.7489C14.689 22.6401 9.72666 20.2369 6.33246 15.388C2.94821 10.5551 2.37643 5.09329 5.05093 3.19089C5.0569 3.18559 5.06486 3.18094 5.07348 3.1763C5.69567 2.7405 7.00507 2.61513 7.46077 2.60452C7.52179 2.61381 7.58016 2.65891 7.58945 2.6934L8.59968 7.53298C8.61627 7.60661 8.54993 7.76978 8.46238 7.83014L6.9195 8.91069C6.46711 9.22842 6.25087 9.79025 6.38155 10.3076C6.3842 10.3209 6.42334 10.437 6.42665 10.4503C6.82 11.6217 7.46143 12.8581 8.27665 14.0255C9.10314 15.2003 10.0457 16.2258 10.9366 16.9209C10.9657 16.9561 11.0851 17.0543 11.1229 17.0808C11.566 17.378 12.165 17.3707 12.6234 17.0489L14.1583 15.9717C14.2538 15.908 14.4322 15.9147 14.4893 15.9445L18.6908 18.5474C18.7173 18.5646 18.7505 18.6482 18.7286 18.7019C18.5641 19.1238 17.9982 20.3131 17.3761 20.7489ZM19.2201 17.6937L15.0186 15.0902C14.6021 14.8381 13.9918 14.864 13.5839 15.1485L12.0483 16.2264C11.9096 16.3206 11.7664 16.3001 11.6344 16.2032C10.7475 15.4974 9.86861 14.5456 9.10049 13.4485C8.33834 12.3606 7.74135 11.2124 7.35596 10.0635C7.33075 9.96603 7.36591 9.82474 7.49658 9.7332L9.03681 8.65465C9.44807 8.37141 9.68355 7.80029 9.58206 7.32668L8.57182 2.4891C8.46768 1.97768 7.96091 1.59163 7.43622 1.60011C7.24054 1.60556 5.50928 1.66393 4.5216 2.33521C4.51298 2.34118 4.5017 2.34649 4.49308 2.35246C1.34497 4.55998 1.8 10.6665 5.50795 15.9651C7.99805 19.5178 11.2224 21.7983 14.0488 22.2971C15.5081 22.5545 16.862 22.3356 17.9531 21.5715C18.9362 20.8836 19.5929 19.2518 19.6638 19.0714C19.8589 18.5752 19.6665 17.971 19.2201 17.6937Z" fill="currentcolor"/>
<path fill-rule="evenodd" clip-rule="evenodd" d="M12.9587 4.64867L14.485 6.15042C14.5719 6.23798 14.6867 6.28972 14.8194 6.28706C14.9447 6.28507 15.0628 6.23532 15.1504 6.14578C15.3334 5.96005 15.3308 5.66089 15.1464 5.4798L14.4439 4.78863C14.497 4.78398 14.5494 4.78 14.6025 4.77801C15.9516 4.71168 17.2405 5.17202 18.2414 6.07679C19.241 6.98089 19.8268 8.21997 19.8937 9.56651C19.9521 10.7426 19.5893 11.9127 18.8696 12.8592C18.7548 13.0138 18.7727 13.2234 18.9147 13.3494L19.0785 13.494C19.1303 13.5398 19.1926 13.569 19.2576 13.5809C19.2888 13.5862 19.3206 13.5882 19.3538 13.5849C19.4533 13.5749 19.5462 13.5259 19.6052 13.4463C20.4688 12.3206 20.9066 10.9257 20.8357 9.51942C20.7561 7.92015 20.0589 6.44958 18.8729 5.37765C17.6875 4.3044 16.1599 3.75717 14.5593 3.83743C14.5089 3.83942 14.4585 3.84207 14.4101 3.84738L15.1271 3.1164C15.2147 3.02751 15.2631 2.90878 15.2631 2.78341C15.2631 2.65606 15.212 2.53865 15.1225 2.45043C15.0336 2.36154 14.9129 2.31179 14.7875 2.31577C14.6608 2.31577 14.5441 2.36751 14.4565 2.4564L12.9541 3.98269C12.7936 4.14521 12.7737 4.39793 12.9037 4.583C12.9196 4.60555 12.9382 4.62744 12.9587 4.64867Z" fill="currentcolor"/>
</svg>
