<svg xmlns="http://www.w3.org/2000/svg" width="64" height="30" viewBox="0 0 64 30">
    <g fill="#FFF" fill-rule="nonzero">
        <path d="M36.933 15.803c-.001.084.006.168.023.25.018.07.06.132.118.174.085.06.18.104.282.129.163.043.329.076.496.099.099.02.148.105.148.257a1.884 1.884 0 0 1-.03.288c-.316-.02-.654-.038-1.014-.053-.361-.016-.68-.023-.956-.023-.286 0-.607.007-.963.023-.355.015-.691.032-1.007.053a.347.347 0 0 1-.03-.152v-.136c0-.162.05-.248.148-.257.168-.023.333-.056.496-.1a.732.732 0 0 0 .275-.128.366.366 0 0 0 .118-.174.887.887 0 0 0 .03-.25v-7.59a.892.892 0 0 0-.03-.251.366.366 0 0 0-.118-.174.747.747 0 0 0-.275-.13 3.971 3.971 0 0 0-.496-.098C34.05 7.53 34 7.445 34 7.303v-.136A.45.45 0 0 1 34.03 7c.316.02.652.037 1.007.053.356.015.677.023.963.023.276 0 .595-.008.956-.023.36-.016.698-.032 1.015-.053a1.576 1.576 0 0 1 .029.303c0 .142-.05.228-.148.257a3.962 3.962 0 0 0-.496.099.832.832 0 0 0-.282.13.308.308 0 0 0-.118.173 1.168 1.168 0 0 0-.023.25v7.59zM48.95 7.36a.429.429 0 0 1 .188-.21 1.59 1.59 0 0 1 .636-.075c.077 0 .19-.003.34-.008.149-.005.31-.01.484-.014A18.544 18.544 0 0 0 51.566 7a.416.416 0 0 1 .03.15v.12c0 .16-.054.255-.16.284-.193.03-.344.06-.455.09a.728.728 0 0 0-.253.113.32.32 0 0 0-.116.158.677.677 0 0 0-.029.21 94.22 94.22 0 0 0 .087 1.904c.029.53.058 1.104.087 1.723.029.62.058 1.207.087 1.762l.072 1.447c.019.41.033.66.043.75a.72.72 0 0 0 .036.247.394.394 0 0 0 .13.172.79.79 0 0 0 .268.128c.147.042.297.074.448.097.106.02.159.115.159.285a1.39 1.39 0 0 1-.029.255c-.337-.02-.643-.038-.918-.052a16.65 16.65 0 0 0-.932-.023c-.318 0-.658.007-1.02.023-.36.014-.662.032-.903.052a1.39 1.39 0 0 1-.029-.255.362.362 0 0 1 .05-.225.135.135 0 0 1 .095-.06c.27-.025.53-.11.766-.247a.54.54 0 0 0 .173-.443c0-.03-.007-.189-.021-.479-.015-.29-.03-.65-.044-1.08-.014-.43-.033-.895-.057-1.394-.025-.5-.049-.97-.073-1.41-.024-.439-.043-.818-.058-1.139a9.548 9.548 0 0 0-.036-.584l-2.963 7.151c-.036.07-.077.138-.123.202a.163.163 0 0 1-.137.068h-.087a.199.199 0 0 1-.087-.015L42.214 8.65c-.01.13-.022.392-.037.786-.014.396-.033.848-.057 1.357a328.066 328.066 0 0 0-.138 3.178 405.207 405.207 0 0 1-.072 1.74.811.811 0 0 0 .03.232.359.359 0 0 0 .115.172c.077.06.166.104.26.127.116.035.275.073.477.113.106.02.159.115.159.285a1.844 1.844 0 0 1-.029.256c-.26-.021-.501-.039-.723-.053a9.455 9.455 0 0 0-.665-.023 20.961 20.961 0 0 0-1.503.075.307.307 0 0 1-.029-.135v-.12a.369.369 0 0 1 .043-.217c.03-.036.071-.06.116-.068.228-.043.448-.124.65-.24.135-.09.22-.24.232-.405 0-.08.01-.322.029-.727.019-.405.043-.884.072-1.439.029-.555.058-1.145.087-1.77a1309 1309 0 0 0 .137-3.08l.022-.57a.418.418 0 0 0-.16-.367 1.957 1.957 0 0 0-.693-.203c-.106-.01-.16-.104-.16-.285V7.15c0-.051.01-.102.03-.15.125.01.298.02.52.03.222.01.448.017.68.023l.65.014c.202.005.347.008.434.008.135-.002.27.005.404.023.079.01.156.028.232.052.05.014.093.046.123.09.024.04.045.08.065.12l2.688 6.731 2.747-6.73zM60.054 16.999a5.944 5.944 0 0 1-2.23-.386 4.278 4.278 0 0 1-1.58-1.06c-.42-.46-.738-1-.933-1.587a6.046 6.046 0 0 1-.31-1.965c.002-.6.105-1.197.303-1.765a4.578 4.578 0 0 1 .956-1.61 4.911 4.911 0 0 1 1.67-1.171 5.949 5.949 0 0 1 2.428-.453c.485-.002.97.032 1.449.104.494.078.982.183 1.465.312.02.266.06.607.121 1.023.06.41.146.816.258 1.216l-.197.037c-.06.013-.121.02-.182.022a.496.496 0 0 1-.205-.037.213.213 0 0 1-.114-.155 3.878 3.878 0 0 0-.38-.824 1.806 1.806 0 0 0-.508-.534 2.004 2.004 0 0 0-.69-.288 4.217 4.217 0 0 0-.926-.09 3.589 3.589 0 0 0-1.45.275 2.792 2.792 0 0 0-1.054.786 3.498 3.498 0 0 0-.646 1.231 5.541 5.541 0 0 0-.22 1.624 5.857 5.857 0 0 0 .266 1.794c.158.517.404 1.003.729 1.44a3.37 3.37 0 0 0 1.1.948c.423.227.898.345 1.38.341.35.006.7-.03 1.04-.11.538-.125 1-.46 1.275-.928.16-.264.295-.542.403-.83a.309.309 0 0 1 .144-.171.443.443 0 0 1 .205-.051.97.97 0 0 1 .19.022c.064.011.127.029.189.051-.06.17-.124.36-.19.572l-.204.652a12.124 12.124 0 0 0-.334 1.312c-.503.09-1.01.155-1.518.194-.516.038-1.083.058-1.7.059zM36.729 20.144a.18.18 0 0 1 .078-.084.7.7 0 0 1 .265-.03l.142-.003.202-.006c.072-.002.144-.005.217-.01.072-.003.134-.007.186-.011.008.019.012.04.012.06v.048c0 .064-.022.102-.066.113a2.23 2.23 0 0 0-.19.037.318.318 0 0 0-.105.045.13.13 0 0 0-.048.063.257.257 0 0 0-.012.084l.009.228c.006.143.015.321.027.533l.036.69.036.704.03.579c.008.164.014.264.018.3a.283.283 0 0 0 .015.1c.012.027.03.05.055.068.033.023.071.04.111.05.061.018.124.03.187.04.044.007.066.045.066.114a.53.53 0 0 1-.012.101l-.383-.02a8.194 8.194 0 0 0-.813 0c-.15.006-.276.013-.376.02a.512.512 0 0 1-.012-.1.142.142 0 0 1 .02-.091.055.055 0 0 1 .04-.024.803.803 0 0 0 .32-.1.211.211 0 0 0 .072-.176l-.01-.192a26.23 26.23 0 0 1-.018-.432 75.3 75.3 0 0 0-.054-1.121l-.024-.456a3.828 3.828 0 0 0-.015-.234l-1.235 2.86a.678.678 0 0 1-.05.082.069.069 0 0 1-.058.027h-.036a.077.077 0 0 1-.036-.007l-1.398-3.333c-.004.051-.009.157-.015.314-.006.158-.014.34-.024.543a151.284 151.284 0 0 0-.057 1.272 182.82 182.82 0 0 1-.03.695c0 .031.003.063.012.093a.143.143 0 0 0 .048.069.297.297 0 0 0 .108.051c.049.014.115.029.2.045.043.008.066.045.065.114 0 .015 0 .03-.002.044a.637.637 0 0 1-.01.057l-.3-.02a4.727 4.727 0 0 0-.579 0c-.12.006-.229.013-.325.02a.113.113 0 0 1-.012-.053v-.048a.146.146 0 0 1 .018-.088.082.082 0 0 1 .048-.026.886.886 0 0 0 .271-.096.207.207 0 0 0 .097-.162 102.094 102.094 0 0 1 .042-.867l.036-.707.033-.695.024-.537.01-.228a.165.165 0 0 0-.067-.147.852.852 0 0 0-.29-.082c-.044-.003-.066-.041-.066-.113v-.048c0-.02.005-.041.012-.06a9.437 9.437 0 0 0 .5.02l.271.007.181.003c.057-.001.113.002.169.009a.753.753 0 0 1 .096.02c.02.007.039.02.051.037.01.016.02.032.027.048l1.12 2.693 1.145-2.693zM41.146 20.34v1.457h.78a.142.142 0 0 0 .144-.094c.034-.098.057-.2.067-.305 0-.026.013-.05.033-.064a.15.15 0 0 1 .072-.015l.052.003a.234.234 0 0 1 .053.01 8.98 8.98 0 0 0-.028.635 7.126 7.126 0 0 0 .028.593.104.104 0 0 1-.053.015.776.776 0 0 1-.052.003c-.067 0-.102-.029-.105-.085a1.163 1.163 0 0 0-.075-.312.142.142 0 0 0-.136-.081h-.78v1.355c0 .085.048.141.144.17.16.034.324.048.487.041h.232a.704.704 0 0 0 .28-.048.643.643 0 0 0 .202-.136c.06-.06.113-.13.155-.206.044-.078.088-.166.133-.262a.073.073 0 0 1 .077-.043.167.167 0 0 1 .067.018c.025.013.051.025.077.036a.99.99 0 0 1-.025.092l-.025.084a.78.78 0 0 0-.044.145c-.009.043-.02.086-.033.127l-.025.136-.028.146a2.684 2.684 0 0 1-.047.196.086.086 0 0 1-.088.048 2.09 2.09 0 0 1-.128-.005 3.378 3.378 0 0 0-.18-.01c-.064-.001-.13-.005-.196-.009a2.521 2.521 0 0 0-.172-.006h-1.256c-.107 0-.23.004-.368.01-.139.006-.263.013-.374.02a.146.146 0 0 1-.01-.063v-.057c0-.061.018-.093.054-.097.104-.017.205-.047.302-.091a.175.175 0 0 0 .092-.17v-3.03a.263.263 0 0 0-.017-.1.146.146 0 0 0-.064-.067.56.56 0 0 0-.122-.048 3.366 3.366 0 0 0-.19-.046c-.037-.012-.056-.048-.056-.109v-.057c0-.02.004-.04.011-.057a10.764 10.764 0 0 0 .736.03h1.135c.166 0 .31-.006.429-.019a3.09 3.09 0 0 1 .246-.018.093.093 0 0 1 .089.055.886.886 0 0 1 .028.179c.008.09.02.18.038.269a3.017 3.017 0 0 0 .105.436.665.665 0 0 1-.06.023.192.192 0 0 1-.067.013.093.093 0 0 1-.089-.055 2.6 2.6 0 0 0-.13-.269.69.69 0 0 0-.143-.181.48.48 0 0 0-.189-.1.966.966 0 0 0-.257-.03h-.736zM47.729 20.144a.18.18 0 0 1 .078-.084.7.7 0 0 1 .265-.03l.142-.003.202-.006c.072-.002.144-.005.217-.01.072-.003.134-.007.186-.011.008.019.012.04.012.06v.048c0 .064-.022.102-.066.113a2.23 2.23 0 0 0-.19.037.318.318 0 0 0-.105.045.13.13 0 0 0-.048.063.257.257 0 0 0-.012.084l.009.228c.006.143.015.321.027.533l.036.69.036.704.03.579c.008.164.014.264.018.3a.283.283 0 0 0 .015.1c.012.027.03.05.055.068.033.023.071.04.111.05.061.018.124.03.187.04.044.007.066.045.066.114a.53.53 0 0 1-.012.101l-.383-.02a8.194 8.194 0 0 0-.813 0c-.15.006-.276.013-.376.02a.512.512 0 0 1-.012-.1.142.142 0 0 1 .02-.091.055.055 0 0 1 .04-.024.804.804 0 0 0 .32-.1.212.212 0 0 0 .072-.176l-.01-.192c-.006-.116-.011-.26-.018-.432a75.632 75.632 0 0 0-.054-1.121l-.024-.456a3.828 3.828 0 0 0-.015-.234l-1.235 2.86a.677.677 0 0 1-.05.082.069.069 0 0 1-.058.027h-.036a.077.077 0 0 1-.036-.007l-1.398-3.333c-.004.051-.009.157-.015.314-.006.158-.014.34-.024.543a151.284 151.284 0 0 0-.057 1.272 185.546 185.546 0 0 1-.03.695c0 .031.003.063.012.093a.143.143 0 0 0 .048.069.297.297 0 0 0 .108.051c.049.014.115.029.2.045.043.008.066.045.065.114a.637.637 0 0 1-.012.101l-.3-.02a4.727 4.727 0 0 0-.579 0c-.12.006-.229.013-.325.02a.113.113 0 0 1-.012-.053v-.048a.146.146 0 0 1 .018-.088.082.082 0 0 1 .048-.026.886.886 0 0 0 .271-.096.207.207 0 0 0 .097-.162 102.685 102.685 0 0 1 .042-.867l.036-.707.033-.695.024-.537.01-.228a.165.165 0 0 0-.067-.147.852.852 0 0 0-.29-.082c-.044-.003-.066-.041-.066-.113v-.048c0-.02.005-.041.012-.06a9.437 9.437 0 0 0 .5.02l.271.007.181.003c.057-.001.113.002.169.009a.753.753 0 0 1 .096.02c.02.007.039.02.051.037.01.016.02.032.027.048l1.12 2.693 1.145-2.693zM52.938 21.867c.145.014.287.047.424.1.121.046.235.113.337.2a.878.878 0 0 1 .301.67c.003.17-.03.337-.096.49a.97.97 0 0 1-.268.355c-.126.1-.268.174-.419.216a1.93 1.93 0 0 1-.547.072h-.947c-.065 0-.14 0-.222.004-.082.001-.16.006-.232.014a2.099 2.099 0 0 1-.257.012l-.006-.042a.111.111 0 0 1-.005-.034v-.026a.141.141 0 0 1 .02-.089.084.084 0 0 1 .045-.026.723.723 0 0 0 .271-.085.2.2 0 0 0 .08-.177v-3.036a.198.198 0 0 0-.071-.173.74.74 0 0 0-.28-.088.07.07 0 0 1-.054-.045.264.264 0 0 1-.011-.082v-.028c0-.01.002-.018.005-.027 0-.014.002-.028.006-.042a10.63 10.63 0 0 0 .706.03h.755c.196-.005.39.02.58.076.134.04.26.11.367.21a.756.756 0 0 1 .194.305c.038.116.058.238.057.361a.761.761 0 0 1-.207.56 1.242 1.242 0 0 1-.526.307v.018zm-.744-.115a.897.897 0 0 0 .355-.061.585.585 0 0 0 .348-.406 1.09 1.09 0 0 0 .036-.28.834.834 0 0 0-.041-.262.563.563 0 0 0-.13-.216.6.6 0 0 0-.229-.142 1.012 1.012 0 0 0-.34-.052h-.087v1.419h.088zm-.088 1.71c-.006.083.044.159.118.178.088.027.18.04.27.04a.782.782 0 0 0 .565-.18.777.777 0 0 0 .186-.579.988.988 0 0 0-.069-.382.757.757 0 0 0-.183-.27.781.781 0 0 0-.268-.16.951.951 0 0 0-.323-.055h-.296v1.407zM56.146 20.34v1.457h.78a.142.142 0 0 0 .144-.094c.034-.098.057-.2.067-.305 0-.026.013-.05.033-.064a.15.15 0 0 1 .072-.015l.052.003a.234.234 0 0 1 .053.01 8.99 8.99 0 0 0-.028.635 7.126 7.126 0 0 0 .028.593.103.103 0 0 1-.053.015.776.776 0 0 1-.052.003c-.067 0-.102-.029-.105-.085a1.163 1.163 0 0 0-.075-.312.142.142 0 0 0-.136-.081h-.78v1.355c0 .085.048.141.144.17.16.034.324.048.487.041h.232a.704.704 0 0 0 .28-.048.643.643 0 0 0 .202-.136c.06-.06.113-.13.155-.206.044-.078.088-.166.133-.262a.073.073 0 0 1 .077-.043.167.167 0 0 1 .067.018c.025.013.051.025.077.036a.99.99 0 0 1-.025.092l-.025.084a.78.78 0 0 0-.044.145c-.009.043-.02.086-.033.127l-.025.136-.028.146a2.715 2.715 0 0 1-.047.196.086.086 0 0 1-.088.048 2.09 2.09 0 0 1-.128-.005 3.378 3.378 0 0 0-.18-.01c-.064-.001-.13-.005-.196-.009a2.521 2.521 0 0 0-.172-.006h-1.256c-.107 0-.23.004-.368.01-.139.006-.263.013-.374.02a.147.147 0 0 1-.01-.063v-.057c0-.061.018-.093.054-.097.104-.017.205-.047.302-.091a.175.175 0 0 0 .092-.17v-3.03a.263.263 0 0 0-.017-.1.146.146 0 0 0-.064-.067.56.56 0 0 0-.122-.048 3.366 3.366 0 0 0-.19-.046c-.038-.012-.056-.048-.056-.109v-.057c0-.02.004-.04.011-.057a10.764 10.764 0 0 0 .736.03h1.135c.166 0 .31-.006.429-.019a3.09 3.09 0 0 1 .246-.018.093.093 0 0 1 .089.055.886.886 0 0 1 .028.179c.008.09.02.18.038.269a3.02 3.02 0 0 0 .105.436.666.666 0 0 1-.06.023.192.192 0 0 1-.067.013.093.093 0 0 1-.089-.055 2.6 2.6 0 0 0-.13-.269.69.69 0 0 0-.143-.181.48.48 0 0 0-.189-.1.966.966 0 0 0-.257-.03h-.736zM61.56 22.202h-.268v1.262a.2.2 0 0 0 .121.195c.133.051.273.083.416.094.058.008.087.048.087.12a.546.546 0 0 1-.013.109 18.353 18.353 0 0 0-1.042-.03 11.033 11.033 0 0 0-.823.03.11.11 0 0 1-.012-.054v-.048c0-.07.022-.107.068-.115.087-.016.158-.031.212-.045a.478.478 0 0 0 .125-.048.139.139 0 0 0 .06-.067.277.277 0 0 0 .015-.1v-3.022a.19.19 0 0 0-.09-.176 1.011 1.011 0 0 0-.347-.084.11.11 0 0 1-.05-.036.144.144 0 0 1-.018-.084v-.055a.082.082 0 0 1 .012-.048 11.813 11.813 0 0 0 .811.03h.942c.2-.003.4.024.593.078.162.047.313.123.446.224.12.092.215.21.28.344a.998.998 0 0 1 .097.44c0 .21-.07.416-.202.583-.144.18-.338.317-.559.395l.98 1.381c.063.095.152.17.259.218.087.036.178.067.27.09.02.003.038.013.05.027a.116.116 0 0 1 .02.075v.055c0 .02-.005.04-.013.06a4.6 4.6 0 0 0-.193-.01 11.204 11.204 0 0 0-.749-.02.42.42 0 0 1-.262-.105 1.384 1.384 0 0 1-.256-.281l-.967-1.382zm-.08-.302c.117.002.234-.01.349-.036a.664.664 0 0 0 .268-.124.554.554 0 0 0 .171-.231.98.98 0 0 0 .06-.369.876.876 0 0 0-.188-.59.842.842 0 0 0-.661-.218h-.187V21.9h.187zM10.752 4.026L14.334.419l3.583 3.607-3.583 3.606zM4.955 8.27l.793-5.038 5.004.798-.793 5.038zM.444 10.59l4.514-2.316 2.3 4.545-4.514 2.315z"/>
        <path d="M.451 19.673l2.3-4.544 4.515 2.315-2.3 4.545zM4.97 21.994l5.004-.797.793 5.037-5.004.798zM17.932 26.234l.793-5.037 5.004.797-.793 5.038zM21.426 17.446l4.514-2.316 2.3 4.544-4.514 2.316z"/>
        <path d="M21.418 12.82l2.3-4.544 4.515 2.315-2.3 4.544zM17.917 4.03l5.004-.798.793 5.038-5.004.798zM10.775 26.225l3.582-3.607 3.583 3.607-3.583 3.606z"/>
    </g>
</svg>
