<svg xmlns="http://www.w3.org/2000/svg" viewBox="0 0 20 20" x="0" y="0">
    <g transform="translate(0.000000,20.000000) scale(0.100000,-0.100000)" fill="currentColor" stroke="none">
        <path d="M20 180 c-16 -16 -20 -33 -20 -80 0 -47 4 -64 20 -80 16 -16 33 -20 80 -20 82 0 100 18 100 100 0 82 -18 100 -100 100 -47 0 -64 -4 -80 -20z m141 -33 c-13 -13 -26 -3 -16 12 3 6 11 8 17 5 6 -4 6 -10 -1 -17z m-23 -9 c15 -15 15 -61 0 -76 -15 -15 -61 -15 -76 0 -15 15 -15 61 0 76 7 7 24 12 38 12 14 0 31 -5 38 -12z"/>
        <path d="M74 116 c-10 -26 4 -48 28 -44 33 4 33 52 0 56 -13 2 -25 -3 -28 -12z"/>
    </g>
</svg>
