<svg xmlns="http://www.w3.org/2000/svg" width="214" height="29" viewBox="0 0 214 29">
    <path fill="#75767A" fill-rule="evenodd" d="M25.805 0l-.113.775c-1.587.028-2.539.917-2.865 2.668a2.235 2.235 0 0 1-.029.22l-1.141 6.223 1.872-1.899c.482-.492.868-.968 1.14-1.418.278-.457.415-.827.413-1.114 0-.181-.035-.445-.105-.801a5.086 5.086 0 0 1-.098-.804c-.007-.411.106-.736.335-.976.225-.24.538-.362.927-.362.386-.007.688.128.906.402.213.273.315.661.322 1.161.002.525-.183 1.085-.565 1.68-.375.597-1.032 1.362-1.977 2.305l-3.452 3.365-1.135 6.187c-.058.3-.098.575-.127.822-.03.24-.045.466-.043.67.002.384.142.66.422.83.281.17.73.251 1.356.246.185-.002.325-.002.42-.006.092-.007.18-.017.27-.026l-.143.835c-.43-.01-.98-.018-1.64-.031-.667-.009-1.872-.01-3.622 0-.84.001-1.435.01-1.78.021-.346.01-.641.027-.886.046l.143-.835h.455c.802-.002 1.367-.166 1.705-.477.335-.315.632-1.172.888-2.569l.453-2.533-1.309 1.277c-1.245 1.193-2.171 2.243-2.79 3.158-.618.909-.93 1.674-.928 2.299.008 1.243.657 2.341 1.947 3.29 1.291.941 2.841 1.41 4.655 1.406 1.578-.01 3.116-.425 4.613-1.245a11.23 11.23 0 0 0 3.763-3.355 11.262 11.262 0 0 0 1.683-3.35c.38-1.221.564-2.521.56-3.9l-.001-.173-.977-.742a3.539 3.539 0 0 0-.935-.523 2.596 2.596 0 0 0-.936-.192c-.649.005-1.192.222-1.636.645-.44.429-.663.932-.66 1.524 0 .4.087.723.252.955.167.24.452.445.858.608.389.165.655.342.799.517.15.176.223.403.223.683.002.398-.138.73-.423.987-.28.256-.65.39-1.107.391-.7.002-1.282-.241-1.738-.731-.459-.484-.687-1.109-.695-1.865-.002-.532.14-1.114.421-1.732.279-.62.67-1.187 1.17-1.7a7.169 7.169 0 0 1 2.122-1.56c.792-.385 1.56-.575 2.307-.578a3.815 3.815 0 0 1 1.66.331c.49.227.993.604 1.507 1.119l1.943 2.013c.336.325.593.533.773.632.101.057.206.098.317.123l.641-3.514.006-.032.242-1.326c.104-.617.19-1.168.252-1.647a9.97 9.97 0 0 0 .087-1.051c0-.48-.147-.805-.444-.985-.295-.18-.863-.269-1.713-.265l-.308.001.158-.791c.055.011.142.015.245.015 1.067.031 1.837.048 2.302.048a65.832 65.832 0 0 0 3.035-.098 65.103 65.103 0 0 1 2.098-.09c1.845-.007 3.277.405 4.293 1.233 1.024.832 1.539 1.995 1.542 3.492.01 1.846-.663 3.373-2.013 4.588-1.352 1.213-3.072 1.823-5.154 1.835-.245 0-.506-.013-.79-.043-.285-.03-.581-.069-.896-.129l.263-.78c.097.009.19.02.287.024.09.006.24.006.445.005 1.565-.01 2.79-.494 3.671-1.452.889-.963 1.325-2.29 1.314-3.975-.002-1.272-.35-2.235-1.042-2.885-.692-.652-1.705-.973-3.035-.967-.153 0-.333.007-.538.022-.205.015-.43.042-.677.072l-2.843 15.705c-.089.45-.152.861-.2 1.231-.045.372-.07.654-.069.837 0 .528.152.885.452 1.073.295.19 1.112.312 2.443.364l-.188.836a79.505 79.505 0 0 0-2.032-.053 87.393 87.393 0 0 0-2.1-.015c-.706.002-1.415.013-2.125.032-.715.016-1.426.041-2.141.075l.143-.835.335-.004c.83-.003 1.42-.141 1.765-.418.348-.272.587-.788.72-1.537l1.284-7.027a4.002 4.002 0 0 1-.957.116 2.86 2.86 0 0 1-1.473-.412c-.472-.271-1.004-.75-1.61-1.426-.17 4.251-1.364 7.646-3.58 10.178-2.215 2.535-5.078 3.815-8.595 3.83-2.685.013-4.83-.755-6.442-2.302-1.606-1.546-2.421-3.6-2.428-6.173-.008-1.513.335-3.015 1.02-4.498a12.68 12.68 0 0 1 2.88-3.935c.45-.424.905-.791 1.365-1.104l-8.384.042-1.227 6.655c-.02.115-.045.27-.073.465-.103.572-.158.945-.158 1.131.006.42.143.726.418.914.277.19.717.283 1.338.282.174-.005.309-.005.414-.012.106-.005.205-.015.3-.023l-.159.835c-1.22-.014-2.175-.027-2.871-.027-.695-.008-1.345-.012-1.95-.012-.905.008-1.57.015-1.985.027-.417.012-.787.027-1.107.048l.143-.837.455-.001c.802-.002 1.37-.163 1.705-.477.334-.313.632-1.17.89-2.567l2.23-12.376c.104-.612.187-1.15.25-1.63.06-.482.094-.837.089-1.072-.002-.482-.149-.805-.445-.983-.29-.18-.865-.268-1.715-.267h-.305L3.455.1c.643.03 1.285.048 1.92.056A77.246 77.246 0 0 0 9.097.138c.67-.015 1.421-.043 2.241-.075l-.113.776C9.64.87 8.68 1.784 8.352 3.593l-.03.135L7.277 9.54l11.795-.053.818-4.725c.113-.622.197-1.162.255-1.632a9.23 9.23 0 0 0 .083-1.07c-.003-.48-.148-.805-.443-.983-.297-.185-.867-.268-1.717-.268l-.296.003.118-.777c.662.028 1.312.047 1.947.055.635.013 1.266.017 1.89.015A59.943 59.943 0 0 0 23.553.07C24.243.047 24.995.02 25.805 0zm90.41 14.129c.25-.002.447.08.585.253.14.173.214.415.214.73.001.775-.295 1.862-.89 3.252-.599 1.39-1.439 2.938-2.514 4.64-1.016 1.621-1.912 2.833-2.693 3.628-.784.802-1.457 1.198-2.025 1.205-.307 0-.55-.083-.733-.242a.797.797 0 0 1-.279-.631c-.001-.237.072-.427.22-.567.15-.137.35-.208.607-.21.125 0 .275.02.458.067.182.041.3.066.36.066.302-.003.645-.165 1.025-.49.382-.328.902-.915 1.56-1.763-.171-2.672-.488-4.75-.948-6.24-.459-1.482-1.01-2.227-1.649-2.223-.231 0-.428.1-.58.293-.153.193-.231.442-.231.747.005.096.011.213.026.346.012.137.035.309.076.515l-.659-.328v-.113c-.008-.875.19-1.574.584-2.107.396-.53.911-.8 1.544-.803.742-.005 1.329.408 1.752 1.243.43.832.78 2.283 1.053 4.357l.332 2.361 1.222-2.223c.293-.538.53-1.08.691-1.635.164-.553.246-1.042.246-1.47-.004-.222-.056-.512-.164-.873-.11-.357-.163-.612-.163-.754 0-.303.088-.553.266-.745a.944.944 0 0 1 .707-.286zm-36.208.064c.54-.005.97.133 1.29.407.316.27.478.638.48 1.106.003.93-.525 1.742-1.585 2.437-1.059.69-2.467 1.13-4.214 1.31a5.561 5.561 0 0 0-.172 1.328c.004.568.144 1.005.422 1.305.28.304.685.452 1.217.452.445-.002.918-.142 1.418-.427.5-.278 1.155-.785 1.969-1.52l.303.417c-.802.888-1.557 1.55-2.272 1.978-.716.428-1.423.645-2.13.645-.8.007-1.431-.241-1.883-.743-.455-.502-.685-1.197-.688-2.08-.005-.697.158-1.445.496-2.24a8.308 8.308 0 0 1 1.385-2.217c.59-.681 1.234-1.211 1.93-1.59.695-.377 1.375-.568 2.034-.568zM99.19 8.12l-3.083 12.565a7.341 7.341 0 0 0-.13.543c-.025.147-.04.263-.04.347a.28.28 0 0 0 .098.21.29.29 0 0 0 .212.101c.143 0 .328-.121.556-.355.23-.235.524-.611.892-1.135l.357.25c-.555.925-1.097 1.647-1.632 2.165-.528.512-.997.772-1.395.774-.285 0-.493-.075-.628-.23-.14-.154-.209-.395-.209-.724-.005-.235.095-.755.292-1.561.063-.249.11-.429.133-.554l2.54-10.54c.007-.02.01-.043.015-.063.002-.023.005-.055.005-.092a.285.285 0 0 0-.048-.166c-.023-.045-.082-.087-.158-.125l-.825-.432a.374.374 0 0 1-.1-.08.21.21 0 0 1-.025-.085c0-.045.01-.085.033-.118a.17.17 0 0 1 .08-.059l3.06-.636zm6.3 6.001c.543-.003.975.135 1.293.409.317.27.477.641.478 1.104 0 .93-.523 1.744-1.586 2.437-1.058.69-2.465 1.13-4.215 1.312a8.965 8.965 0 0 0-.129.708c-.024.218-.04.425-.04.618.005.569.144 1.006.422 1.306.28.305.689.453 1.217.451.447-.002.918-.142 1.416-.425.502-.278 1.159-.785 1.969-1.52l.3.415c-.795.892-1.55 1.55-2.269 1.979-.715.428-1.423.646-2.126.646-.805.007-1.435-.243-1.885-.745-.457-.502-.689-1.195-.689-2.078-.005-.698.16-1.448.497-2.24a8.32 8.32 0 0 1 1.382-2.219c.593-.681 1.235-1.211 1.933-1.588.695-.377 1.377-.57 2.032-.57zm28.186-5.86a.626.626 0 0 1 .526.234c.124.158.184.383.184.675.003.303-.107.628-.326.973-.218.348-.601.792-1.148 1.34l-4.658 4.538c-.722.695-1.262 1.302-1.622 1.834-.356.526-.538.97-.538 1.335.005.721.382 1.358 1.132 1.908.745.547 1.648.82 2.701.817.915-.005 1.809-.247 2.675-.722a6.454 6.454 0 0 0 2.187-1.948 6.48 6.48 0 0 0 .975-1.945 7.47 7.47 0 0 0 .328-2.264v-.096l-.568-.433a1.997 1.997 0 0 0-.542-.304 1.53 1.53 0 0 0-.545-.111c-.376 0-.69.128-.946.373-.259.25-.389.54-.389.883.005.233.053.422.148.557.095.14.264.257.499.351.225.096.381.199.463.3.087.104.13.235.132.399 0 .23-.083.423-.249.572-.161.148-.376.226-.641.226a1.307 1.307 0 0 1-1.009-.425c-.266-.278-.4-.643-.404-1.085 0-.305.083-.645.244-1 .164-.36.392-.688.679-.986a4.15 4.15 0 0 1 1.235-.907 3.05 3.05 0 0 1 1.338-.337c.357-.002.673.062.963.194.284.131.576.346.874.648l1.128 1.168c.197.185.347.312.447.365.107.062.213.09.332.088.21 0 .394-.075.546-.228a.763.763 0 0 0 .227-.55c-.004-.095-.094-.265-.279-.5-.188-.242-.278-.448-.28-.623 0-.198.059-.364.18-.497a.6.6 0 0 1 .469-.201c.243 0 .436.078.58.243.145.163.217.392.217.683.004.697-.254 1.312-.766 1.838-.51.532-1.096.797-1.761.799-.298 0-.582-.079-.855-.24-.277-.16-.584-.435-.935-.827-.099 2.47-.792 4.438-2.077 5.907-1.286 1.475-2.95 2.216-4.992 2.225-1.556.007-2.8-.44-3.736-1.338-.933-.896-1.405-2.09-1.41-3.582-.007-.88.195-1.748.593-2.61a7.378 7.378 0 0 1 1.668-2.287 5.923 5.923 0 0 1 1.45-1.023c.489-.233.96-.35 1.404-.353.195 0 .405.035.63.11a3 3 0 0 1 .702.34l1.3-1.324a4.64 4.64 0 0 0 .664-.822c.162-.266.24-.48.24-.646a3.105 3.105 0 0 0-.061-.465 2.964 2.964 0 0 1-.057-.469c-.003-.236.06-.425.19-.563a.724.724 0 0 1 .543-.212zM74.215 9.53l-.077.511c-1.046.019-1.678.606-1.893 1.766a1.177 1.177 0 0 1-.02.143l-1.69 9.228a7.069 7.069 0 0 0-.085.54c-.018.159-.03.309-.03.445 0 .255.095.435.282.549.185.11.481.165.898.163.12 0 .214-.003.275-.003.058-.005.12-.012.18-.02l-.095.553c-.283-.005-.648-.01-1.085-.02-.442-.005-1.238-.007-2.395 0-.556.002-.95.005-1.18.011-.227.009-.42.019-.583.034l.095-.553h.302c.526-.002.901-.109 1.124-.314.222-.21.419-.777.592-1.7l.754-4.225-7.766.034-.811 4.403c-.014.075-.029.176-.048.306-.069.377-.106.626-.106.749.004.276.096.478.277.605.183.125.473.185.885.185a7.94 7.94 0 0 0 .273-.009c.07-.001.136-.01.199-.015l-.104.552c-.808-.008-1.44-.017-1.9-.018-.46-.005-.89-.008-1.29-.005-.598.005-1.038.008-1.313.015-.273.008-.52.02-.732.032l.095-.554h.302c.529 0 .905-.105 1.127-.315.22-.207.418-.773.588-1.698l1.475-8.182c.069-.406.125-.763.165-1.08.04-.32.064-.555.059-.708 0-.318-.097-.532-.294-.652-.19-.12-.572-.178-1.133-.178l-.202.003.104-.513c.428.018.851.032 1.27.037.42.006.838.01 1.251.008.36 0 .764-.008 1.21-.02.444-.008.94-.028 1.482-.052l-.074.515c-1.048.02-1.681.625-1.903 1.82l-.018.092-.69 3.841 7.801-.035.539-3.123c.078-.408.13-.766.168-1.078a5.98 5.98 0 0 0 .058-.71c0-.319-.1-.53-.294-.65-.195-.122-.574-.175-1.135-.175l-.196.002.077-.514a70.28 70.28 0 0 0 2.538.045c.352 0 .752-.01 1.207-.023.455-.015.954-.034 1.49-.045zm17.186 4.645c.267-.002.474.072.627.216.15.146.23.352.232.615 0 .135-.032.329-.102.575a8.875 8.875 0 0 1-.311.947l-1.117 3.087c-.177.5-.317.921-.41 1.261-.095.34-.147.587-.142.73 0 .109.029.19.097.25.06.057.16.087.28.087.148 0 .368-.125.658-.377.292-.241.622-.593 1.002-1.045l.303.297c-.618.819-1.235 1.463-1.856 1.937-.627.473-1.142.711-1.564.715-.227 0-.405-.079-.531-.235-.125-.16-.187-.382-.192-.672a2.096 2.096 0 0 1 .08-.532c.056-.206.158-.53.313-.961l1.138-3.213c.134-.379.242-.714.324-1.016.083-.303.126-.501.126-.598a.4.4 0 0 0-.146-.308.521.521 0 0 0-.352-.123c-.427 0-.978.318-1.658.956-.677.637-1.389 1.503-2.132 2.61-.447.639-.918 1.61-1.412 2.912-.11.281-.191.493-.243.628-.095.245-.176.397-.245.455-.067.052-.185.082-.348.082-.347.002-.58-.015-.707-.05-.125-.037-.19-.095-.19-.177 0-.087.017-.192.049-.32.03-.131.091-.338.181-.625l1.433-4.13c.142-.425.255-.803.339-1.13.083-.33.132-.546.127-.658a.497.497 0 0 0-.117-.342.427.427 0 0 0-.319-.128c-.16 0-.333.073-.508.218-.177.145-.482.49-.91 1.039l-.345-.302c.587-.84 1.16-1.495 1.729-1.955.56-.46 1.06-.695 1.5-.695.273 0 .463.055.575.165.113.115.173.308.173.586 0 .13-.027.325-.082.584-.06.258-.138.551-.238.882l-.892 2.621c1.002-1.435 2.053-2.598 3.16-3.501 1.103-.904 1.977-1.357 2.623-1.362zm73.864-.56c.155-.003.265.015.325.052.062.033.095.091.095.178 0 .108-.045.303-.147.575-.013.035-.02.068-.025.083l-.43 1.349c-.155.458-.335 1.05-.541 1.768-.205.717-.422 1.513-.652 2.387l-.277 1.06c-.011.061-.023.126-.038.191-.012.065-.018.11-.018.13 0 .082.021.154.063.217.045.06.095.088.16.088.142 0 .34-.098.593-.303.255-.2.559-.497.904-.883l.36.268c-.625.818-1.207 1.452-1.757 1.91-.553.453-1.007.682-1.362.683-.24 0-.423-.051-.546-.16a.595.595 0 0 1-.19-.465c0-.161.021-.363.075-.593a9.2 9.2 0 0 1 .275-.94l.601-1.772c-.838 1.257-1.668 2.237-2.483 2.939-.813.703-1.522 1.055-2.123 1.055-.425.008-.76-.142-1.004-.44-.245-.295-.366-.704-.371-1.22 0-.67.15-1.389.451-2.159.304-.765.75-1.548 1.335-2.335.729-.998 1.51-1.785 2.337-2.356.818-.572 1.572-.86 2.25-.862.305 0 .555.05.762.152.205.101.383.268.53.5l.316-.719a.826.826 0 0 1 .23-.291.48.48 0 0 1 .302-.087zm13.614-2l-.745 2.564 2.027-.01-.255.817-2.049.008-1.678 5.783c-.045.15-.08.285-.102.412a2.2 2.2 0 0 0-.035.341c0 .119.049.217.14.299a.52.52 0 0 0 .339.117c.24-.002.546-.149.921-.442.37-.288.834-.745 1.387-1.369l.28.32c-.69.95-1.357 1.677-1.997 2.179-.64.497-1.223.752-1.755.753-.336 0-.593-.078-.771-.243-.18-.167-.27-.404-.27-.71 0-.183.035-.439.1-.764.061-.326.156-.68.271-1.06l1.677-5.61-2.013.01.226-.816 2.005-.013.709-2.557 1.588-.008zm18.865 2.254c.543-.003.975.133 1.293.405.318.273.476.642.481 1.108 0 .932-.528 1.744-1.588 2.435-1.058.694-2.462 1.13-4.212 1.314a6.27 6.27 0 0 0-.13.71c-.026.216-.04.425-.04.616.002.57.142 1.005.42 1.307.28.303.689.45 1.216.45.45-.002.92-.142 1.421-.423.497-.282 1.154-.789 1.965-1.524l.304.419c-.802.886-1.555 1.548-2.27 1.978-.719.428-1.425.645-2.132.648-.799.004-1.43-.246-1.883-.748-.456-.503-.685-1.195-.687-2.078-.007-.697.162-1.447.498-2.244a8.236 8.236 0 0 1 1.383-2.215c.589-.678 1.232-1.21 1.929-1.585.697-.38 1.377-.571 2.032-.573zm14.518-.039c.498-.002.893.107 1.188.323.295.222.445.512.447.884 0 .293-.043.528-.13.697-.087.165-.203.251-.36.253-.15 0-.33-.102-.535-.309-.019-.016-.035-.034-.052-.046a2.226 2.226 0 0 0-.707-.495 2.108 2.108 0 0 0-.815-.147c-.42.002-.76.1-1.021.3a.91.91 0 0 0-.388.772c0 .2.056.388.173.556.111.177.318.387.626.629l1.692 1.322c.293.238.507.474.637.716.133.247.2.507.2.792.006.338-.087.688-.262 1.052-.18.368-.431.731-.772 1.096a3.157 3.157 0 0 1-1.151.788c-.44.184-.925.279-1.452.279-.681.002-1.243-.162-1.678-.498-.44-.334-.663-.755-.663-1.265a1.462 1.462 0 0 1 .198-.78c.135-.23.271-.346.406-.347.059 0 .126.083.207.252.077.166.158.298.23.396.284.347.608.605.978.775.365.17.785.253 1.259.248.49 0 .882-.1 1.17-.3.29-.196.433-.456.433-.781 0-.218-.095-.447-.281-.682-.19-.233-.484-.493-.877-.777l-1.082-.766c0-.01-.003-.012-.01-.012-.853-.615-1.283-1.205-1.283-1.758a2.037 2.037 0 0 1 .302-1.092c.2-.34.524-.691.976-1.058.44-.34.852-.597 1.242-.764a3.03 3.03 0 0 1 1.155-.253zm-59.23-4.57c1.22-.004 2.166.27 2.841.814.677.552 1.014 1.32 1.019 2.312.005 1.22-.439 2.228-1.333 3.033-.894.802-2.032 1.205-3.407 1.212-.162 0-.335-.008-.522-.028a7.78 7.78 0 0 1-.593-.084l.175-.518c.062.008.121.013.188.015.058.006.159.006.293.006 1.034-.008 1.845-.33 2.429-.961.588-.639.875-1.514.871-2.63-.001-.84-.233-1.477-.693-1.909-.457-.43-1.125-.64-2.005-.636-.103 0-.221.002-.356.013a9.261 9.261 0 0 0-.447.049l-1.879 10.386c-.061.299-.103.569-.135.814-.03.245-.048.428-.043.553 0 .35.099.583.297.71.195.125.738.205 1.615.241l-.12.554a43.792 43.792 0 0 0-1.349-.038 94.73 94.73 0 0 0-1.39-.01c-.464.003-.933.01-1.403.021-.475.01-.942.032-1.417.049l.094-.552h.223c.55-.002.942-.094 1.168-.279.23-.18.389-.521.476-1.016l1.628-8.907a45 45 0 0 0 .166-1.087c.039-.323.055-.554.055-.698 0-.317-.098-.528-.293-.648-.195-.122-.572-.18-1.137-.178h-.198l.103-.52a51.17 51.17 0 0 0 1.682.04 40.98 40.98 0 0 0 2.01-.066 42.172 42.172 0 0 1 1.387-.058zm20.347 4.692c.191-.001.34.056.443.167.107.107.157.268.162.482.001.438-.082.78-.249 1.018-.168.242-.41.358-.726.365a2.51 2.51 0 0 1-.22-.022 2.082 2.082 0 0 0-.255-.018c-.564 0-1.14.49-1.73 1.457-.592.965-1.174 2.393-1.754 4.268l-.336 1.117c-.007.02-.01.045-.024.088-.075.197-.19.288-.351.288h-.075l-.63-.01c-.132-.013-.222-.044-.274-.09-.05-.046-.078-.116-.078-.211.007-.055.013-.107.027-.169.008-.053.02-.121.038-.19l1.662-5.786c.056-.202.093-.347.11-.435.016-.1.025-.183.025-.25a.414.414 0 0 0-.124-.307.455.455 0 0 0-.316-.11c-.187 0-.402.1-.64.297-.235.196-.545.54-.929 1.018l-.336-.36c.695-.915 1.275-1.58 1.755-1.983.475-.402.906-.6 1.295-.605.238-.004.426.06.558.183.135.12.2.295.2.53 0 .187-.035.455-.105.795-.072.345-.21.859-.405 1.543l-.327 1.215c.695-1.356 1.352-2.406 1.989-3.153.635-.752 1.175-1.127 1.62-1.132zm33.635-.089c.195 0 .343.055.448.163.103.109.154.269.162.482 0 .44-.085.782-.252 1.02-.17.238-.41.36-.728.363-.037 0-.11-.008-.215-.021-.108-.01-.195-.02-.255-.02-.567.003-1.145.49-1.73 1.456-.592.97-1.178 2.395-1.755 4.272l-.335 1.115c-.009.02-.015.045-.029.088-.07.195-.184.292-.348.292h-.078l-.63-.015c-.129-.015-.217-.043-.272-.088-.048-.044-.077-.119-.077-.214.007-.051.012-.103.024-.163.008-.057.023-.123.042-.195l1.66-5.782c.058-.203.093-.346.11-.44.016-.096.024-.18.024-.251a.422.422 0 0 0-.125-.305.457.457 0 0 0-.316-.11c-.185.001-.399.101-.637.301-.238.197-.547.539-.927 1.019l-.338-.36c.692-.917 1.277-1.58 1.755-1.982.472-.405.909-.608 1.295-.612.239 0 .429.062.56.185.13.12.197.299.2.534 0 .185-.037.451-.107.791-.075.347-.213.859-.406 1.544l-.325 1.213c.692-1.353 1.353-2.405 1.985-3.153.631-.752 1.175-1.124 1.62-1.127zm-44.534 1.11c-.393.002-.837.167-1.325.499-.49.328-.947.768-1.368 1.321a8.352 8.352 0 0 0-1.134 1.955c-.27.67-.408 1.272-.401 1.807.001.392.091.697.27.925a.86.86 0 0 0 .713.342c.377 0 .788-.187 1.248-.552.454-.367.937-.903 1.439-1.602.498-.695.891-1.368 1.171-2.023.282-.653.422-1.195.42-1.618-.001-.327-.095-.584-.285-.77-.19-.192-.435-.284-.748-.284zM17.184 11.504c-.559.006-1.145.201-1.772.601-.62.395-1.177.932-1.677 1.602a8.21 8.21 0 0 0-1.123 2.207 7.367 7.367 0 0 0-.392 2.36 5.488 5.488 0 0 0 .192 1.45c.42-.59.813-1.12 1.175-1.59.365-.474.66-.825.88-1.072l3.377-3.605c.016-.025.063-.07.13-.138.259-.284.425-.527.5-.728l.042-.252-.005-.077c-.031-.2-.155-.37-.375-.51-.257-.167-.577-.25-.952-.248zm62.271 3.379c-.597 0-1.208.373-1.847 1.117-.63.741-1.13 1.706-1.5 2.891 1.177-.095 2.162-.46 2.954-1.09.795-.631 1.185-1.325 1.181-2.088 0-.255-.071-.454-.213-.605a.763.763 0 0 0-.575-.225zm25.486-.072c-.594.004-1.207.373-1.842 1.117-.633.741-1.135 1.708-1.505 2.892 1.177-.096 2.163-.459 2.955-1.09.79-.629 1.183-1.326 1.182-2.087 0-.255-.072-.455-.218-.607a.754.754 0 0 0-.572-.225zm92.254-.253c-.596 0-1.207.373-1.843 1.117-.63.741-1.13 1.706-1.502 2.893 1.177-.097 2.16-.46 2.954-1.092.791-.63 1.181-1.326 1.181-2.088 0-.253-.075-.455-.217-.603-.14-.152-.334-.227-.573-.227zm-68.719-1.078c-.325.003-.666.118-1.028.351-.36.229-.685.54-.975.927-.283.399-.5.825-.651 1.282a4.26 4.26 0 0 0-.225 1.372 3.315 3.315 0 0 0 .106.84c.248-.34.474-.65.687-.924.212-.273.382-.478.51-.623l1.96-2.092c.008-.01.035-.04.073-.078.215-.232.32-.417.32-.555 0-.142-.078-.26-.225-.357a1.022 1.022 0 0 0-.552-.143zm55.198 5.285c1.001-1.429 2.054-2.597 3.158-3.499 1.105-.903 1.978-1.357 2.625-1.36.263 0 .473.07.625.215.151.145.23.35.233.615 0 .137-.035.327-.102.575-.065.253-.17.568-.313.947l-1.117 3.09c-.178.495-.316.916-.41 1.261-.095.339-.146.582-.146.727 0 .108.033.192.101.252a.405.405 0 0 0 .28.083c.15 0 .37-.122.659-.372.293-.245.625-.595 1.005-1.048l.301.297c-.618.818-1.238 1.465-1.858 1.938-.623.473-1.143.712-1.563.715a.643.643 0 0 1-.53-.235c-.125-.16-.189-.383-.19-.672-.005-.141.026-.32.076-.531.057-.207.159-.534.314-.964l1.14-3.211c.135-.379.241-.717.321-1.017.084-.302.124-.5.124-.595a.399.399 0 0 0-.147-.313.519.519 0 0 0-.35-.124c-.422.004-.977.322-1.657.959-.675.636-1.386 1.505-2.133 2.61-.443.638-.915 1.61-1.41 2.911l-.242.627c-.095.248-.176.398-.246.453-.065.057-.187.085-.35.087-.345 0-.577-.017-.704-.053-.125-.034-.19-.095-.19-.177 0-.085.017-.19.044-.32.035-.13.095-.34.186-.623l1.434-4.13c.14-.427.251-.804.338-1.132.083-.327.13-.547.125-.655a.493.493 0 0 0-.117-.343.416.416 0 0 0-.32-.127c-.156 0-.331.073-.505.22-.178.145-.483.49-.91 1.035l-.343-.3c.583-.84 1.158-1.495 1.72-1.955.563-.463 1.065-.695 1.505-.697.27 0 .465.054.577.169.113.11.17.303.173.585 0 .13-.03.323-.083.583a12.29 12.29 0 0 1-.24.882l-.888 2.617z"/>
</svg>
