<svg xmlns="http://www.w3.org/2000/svg" viewBox="0 0 20 20" x="0" y="0">
    <path fill="currentColor" d="M4 11.6c.3.1.5 0 .6-.3.1-.2.2-.7.3-.9.1-.3.1-.4-.2-.7-.5-.5-.8-1.2-.8-2.2C3.9 4.6 6.2 2 10 2c3.3 0 5.1 1.9 5.1 4.4 0 3.3-1.6 6.1-3.9 6.1-1.3 0-2.3-1-2-2.2.4-1.5 1.1-3 1.1-4.1 0-.9-.5-1.7-1.7-1.7-1.3 0-2.4 1.3-2.4 3 0 1.1.4 1.8.4 1.8S5.2 14.6 5 15.6c-.5 1.9-.1 4.1 0 4.4 0 .1.2.2.3.1.1-.1 1.7-2 2.2-3.8.3-.6 1-3.3 1-3.3.4.8 1.7 1.4 3 1.4 4 0 6.7-3.4 6.7-7.9 0-3.4-3.1-6.6-7.8-6.6-5.9.1-8.9 4-8.9 7.3 0 2 .8 3.7 2.5 4.4"/>
</svg>
