<?xml version="1.0" standalone="no"?>
<!DOCTYPE svg PUBLIC "-//W3C//DTD SVG 20010904//EN"
 "http://www.w3.org/TR/2001/REC-SVG-20010904/DTD/svg10.dtd">
<svg version="1.0" xmlns="http://www.w3.org/2000/svg"
 width="300.000000pt" height="300.000000pt" viewBox="0 0 300.000000 300.000000"
 preserveAspectRatio="xMidYMid meet">
<metadata>
Created by potrace 1.11, written by Peter Selinger 2001-2013
</metadata>
<g transform="translate(0.000000,300.000000) scale(0.100000,-0.100000)"
fill="#000000" stroke="none">
<path d="M344 2301 c-10 -10 -3 -42 9 -40 69 9 119 -19 120 -66 1 -39 -12
-141 -23 -185 -5 -19 -11 -53 -15 -75 -6 -43 -84 -485 -91 -519 -3 -12 -7 -39
-10 -61 -20 -129 -57 -185 -128 -189 -34 -1 -55 -17 -56 -41 0 -6 79 -9 224
-7 l224 3 4 23 c4 21 1 23 -31 23 -54 -1 -89 13 -98 36 -4 12 -7 24 -6 27 0 3
3 25 7 50 3 25 7 54 9 65 3 11 11 54 18 95 7 41 13 77 14 80 1 3 7 39 14 81 8
42 17 82 20 88 5 8 73 11 233 9 l226 -3 -52 -45 c-149 -128 -237 -320 -231
-506 3 -96 17 -151 58 -227 57 -109 167 -191 295 -221 87 -20 249 -14 337 12
130 40 261 139 341 256 37 54 99 192 114 251 18 75 20 85 26 145 3 30 7 64 9
75 2 11 4 24 4 28 1 5 16 -6 33 -24 44 -44 112 -73 154 -66 41 7 40 10 15
-120 -11 -54 -22 -114 -25 -133 -33 -214 -55 -250 -152 -250 -29 0 -34 -3 -34
-23 l0 -23 231 1 c203 1 232 3 240 17 12 21 3 26 -57 33 -56 7 -93 28 -95 53
-3 45 0 82 15 162 3 14 26 140 51 280 52 295 49 275 81 449 13 74 26 136 28
138 9 9 92 9 134 0 115 -24 167 -106 157 -248 -11 -163 -120 -269 -276 -269
-45 0 -49 -2 -49 -24 0 -23 5 -25 48 -28 179 -11 338 70 407 208 41 84 45 196
9 271 -28 58 -81 105 -146 130 -48 18 -171 22 -438 13 -143 -5 -155 -6 -155
-24 0 -15 9 -19 50 -22 82 -4 95 -40 69 -189 -3 -16 -7 -42 -9 -57 -2 -15 -8
-52 -14 -83 -6 -30 -16 -80 -22 -110 -6 -30 -14 -55 -19 -55 -5 0 -53 44 -107
98 -54 55 -113 107 -131 116 -166 86 -439 -99 -436 -296 1 -46 6 -64 28 -92
57 -75 174 -68 189 11 7 39 0 49 -54 83 -68 42 -80 81 -44 150 16 31 70 60
111 60 31 0 96 -30 133 -61 21 -17 24 -29 23 -72 -7 -334 -286 -629 -596 -629
-197 0 -370 123 -368 262 1 65 56 152 171 272 57 60 105 107 107 106 7 -8 -46
-242 -61 -264 -19 -29 -53 -44 -101 -44 -29 0 -34 -3 -34 -23 l0 -23 220 0
c121 0 220 3 220 7 0 4 3 14 6 22 4 11 -7 15 -52 19 -74 6 -87 23 -80 98 3 30
12 87 20 125 8 39 17 88 20 110 25 164 13 143 170 299 146 146 196 217 196
279 0 30 -16 67 -34 79 -22 15 -66 8 -86 -14 -20 -21 -21 -30 -15 -96 7 -71 6
-73 -28 -125 -20 -28 -63 -79 -97 -112 -51 -50 -60 -56 -56 -35 10 48 26 135
32 175 3 22 10 59 15 83 5 23 12 59 15 80 10 61 38 105 85 132 24 13 45 23 47
22 11 -10 32 2 32 18 0 20 -5 20 -222 18 -210 -3 -223 -4 -223 -22 0 -15 9
-19 50 -22 72 -4 88 -27 80 -113 -3 -36 -8 -73 -11 -82 -2 -10 -7 -30 -9 -45
-10 -70 -36 -220 -40 -234 -4 -13 -51 -15 -336 -17 l-330 -2 5 27 c3 15 8 41
11 57 23 143 57 301 71 327 9 17 26 40 38 49 19 17 66 33 82 29 8 -2 24 21 24
36 0 8 -66 11 -221 10 -121 -1 -223 -3 -225 -5z m826 -659 c33 -26 22 -55 -47
-127 -124 -130 -187 -201 -228 -256 -24 -32 -45 -55 -49 -52 -13 13 -5 134 13
192 26 84 62 141 122 195 72 65 146 83 189 48z"/>
</g>
</svg>
